<svg xmlns="http://www.w3.org/2000/svg" width="169" height="102" viewBox="0 0 169 102">
    <g fill="none" fill-rule="nonzero">
        <g fill="#FFF">
            <path d="M11.707 94.315c.481.675.723 1.456.723 2.343 0 1.35-.418 2.393-1.253 3.126-.835.734-2.034 1.1-3.595 1.1H.024V85.457h7.354c1.467 0 2.621.342 3.463 1.024.842.683 1.263 1.678 1.263 2.986 0 .9-.22 1.66-.662 2.277a3.136 3.136 0 0 1-1.762 1.231c.869.218 1.545.665 2.027 1.34zm-7.16-2.844h1.751c.408 0 .71-.087.907-.261.197-.175.295-.443.295-.807 0-.377-.098-.657-.295-.839-.197-.181-.5-.272-.907-.272H4.547v2.18zm2.963 5.284c.197-.166.296-.439.296-.817 0-.74-.4-1.111-1.202-1.111H4.547v2.18h2.057c.407 0 .71-.085.906-.252zM20.11 97.224h4.359v3.66h-8.882V85.457h4.522v11.767zM38.28 86.209c1.127.675 2.02 1.616 2.679 2.822.659 1.206.988 2.564.988 4.075 0 1.51-.33 2.869-.988 4.074-.659 1.206-1.555 2.15-2.689 2.833a7.075 7.075 0 0 1-3.717 1.024 7.11 7.11 0 0 1-3.739-1.024c-1.134-.683-2.033-1.627-2.699-2.833-.665-1.206-.998-2.563-.998-4.074 0-1.511.333-2.87.998-4.075.665-1.206 1.565-2.147 2.7-2.822a7.169 7.169 0 0 1 3.738-1.013c1.357 0 2.6.338 3.727 1.013zm-5.825 4.38c-.49.617-.734 1.456-.734 2.517 0 1.046.244 1.877.734 2.495.488.617 1.188.926 2.098.926.896 0 1.589-.309 2.077-.926.49-.618.734-1.45.734-2.495 0-1.06-.245-1.9-.734-2.517-.488-.617-1.18-.926-2.077-.926-.91 0-1.61.309-2.098.926zM54.027 92.953l5.337 7.932h-5.44l-4.196-6.69v6.69h-4.522V85.457h4.522v6.516l4.237-6.516h5.399zM71.464 98.553h-4.807l-.713 2.331h-4.747l5.276-15.427h5.215l5.256 15.427h-4.767l-.713-2.33zm-1.1-3.639l-1.303-4.292-1.304 4.292h2.607zM92.182 97.093a6.847 6.847 0 0 1-2.618 2.779c-1.134.675-2.455 1.013-3.962 1.013h-6.01V85.457h6.01c1.507 0 2.828.327 3.962.98a6.663 6.663 0 0 1 2.618 2.725c.61 1.162.916 2.484.916 3.966 0 1.467-.306 2.789-.916 3.965zm-4.564-1.416c.598-.596.896-1.446.896-2.55 0-1.103-.298-1.954-.896-2.55-.598-.595-1.405-.893-2.424-.893h-1.08v6.886h1.08c1.019 0 1.826-.297 2.424-.893zM105.605 98.553h-4.807l-.713 2.331H95.34l5.276-15.427h5.215l5.255 15.427h-4.767l-.713-2.33zm-1.1-3.639l-1.303-4.292-1.304 4.292h2.607zM130.014 100.319L135.163 85h-5.106l-3.137 10.537L123.76 85h-5.106l5.15 15.319h6.21zm12.58 0V95.45h1.904c1.24 0 2.297-.23 3.17-.692.872-.462 1.532-1.085 1.979-1.872.447-.786.67-1.662.67-2.628 0-1.601-.5-2.878-1.503-3.83S146.373 85 144.498 85h-6.708v15.319h4.804zm1.363-8.655h-1.363v-2.813h1.363c.995 0 1.493.47 1.493 1.407s-.498 1.406-1.493 1.406zm14.224 8.655v-7.703l5.085 7.703h4.803V85h-4.803v7.832L158.18 85h-4.803v15.319h4.803z"/>
        </g>
        <path fill="#FE5810" d="M116.205 11.569v-.002c-.608-5.812-1.947-9.424-1.974-9.495V2.07c-.173-.72-.434-.935-.72-.897-.026.037-1.143 1.566-3.68 3.014-1.328.757-2.956 1.49-4.834 1.795-1.874.306-4 .243-6.331-.471l-.006-.002a76.822 76.822 0 0 1-4.884-1.673c-3.954-1.511-6.31-2.82-7.766-3.445-.596-.256-1.041-.397-1.385-.39h-.023c-.343-.007-.788.135-1.384.39-1.977.848-5.61 2.957-12.65 5.118l-.007.002c-2.331.714-4.457.777-6.332.471-1.877-.306-3.503-.98-4.83-1.739-2.568-1.466-4.02-3.24-4.02-3.24-.155.37-.28.725-.381 1.069l-.001-.002s-1.365 3.638-1.979 9.527c-1.691 10.875 1.258 23.457 7.194 33.365 0 .003.003.005.004.008 4.713 8.193 12.173 16.52 23.759 24.332.278.17.527.243.762.243.177 0 .348-.041.515-.114.229-.098.456-.253.7-.437.17-.128.338-.257.506-.389.002 0 .003-.002.003-.002 10.902-7.582 18.007-15.733 22.553-23.64l.001-.002c5.942-9.917 8.89-22.512 7.19-33.392zM94.334 55.333a29.26 29.26 0 0 1-.204.201l-.349.341-.259.25a84.432 84.432 0 0 1-1.074 1.01c-.183.169-.369.337-.555.506a83.436 83.436 0 0 1-1.051.933l-.356.31-.36.306-.279.237c-.47.395-.947.788-1.43 1.177l-.297.237-.239.19-.304.24c-.258.201-.518.403-.78.604l-.2.153-.228.173c-.149.112-.296.224-.446.335l-.242.179c-.165.123-.33.244-.496.366l-.4.291h-.162c-4.274-3.064-8.066-6.32-11.298-9.7-3.368-3.526-6.217-7.278-8.464-11.157l-.051-.105-.119-.185c-2.653-4.445-4.66-9.53-5.803-14.706a25.192 25.192 0 0 1-.065-.306c-.022-.103-.045-.205-.065-.307a16.619 16.619 0 0 1-.062-.305 12.519 12.519 0 0 1-.06-.307c-.021-.101-.04-.204-.059-.305a53.936 53.936 0 0 1-.259-1.525 41.024 41.024 0 0 1-.155-1.093l36.471 31.666-.3.296zm9.363-15l-.023-.014L57.923 21.02v-.007c-.01-.12-.018-.237-.026-.355a.37.37 0 0 1-.002-.047c-.01-.128-.017-.256-.024-.382-.008-.125-.015-.25-.02-.374 0-.018-.001-.038-.003-.056-.005-.12-.011-.237-.014-.357-.005-.13-.011-.26-.014-.39-.004-.13-.006-.26-.008-.39l-.006-.322v-.126a35.92 35.92 0 0 1 .407-5.818l.02-.13.014-.13c.023-.212.046-.421.07-.626.009-.072.016-.144.026-.215.01-.092.022-.182.034-.273l.021-.165.008-.055c.007-.061.016-.122.024-.182l45.246 29.698.025.01-.004.004zm6.645-12.828a72.602 72.602 0 0 1-.147.641 28.961 28.961 0 0 1-.16.66 39.482 39.482 0 0 1-.224.873l-.017.058c-.028.104-.055.207-.084.31a11.723 11.723 0 0 1-.115.407v.006L79.774 7.737a73.744 73.744 0 0 0 1.592-.697l.15-.067.326-.149.245-.114c.047-.02.095-.043.142-.065l.248-.116.52-.245.239-.115c.234-.111.455-.218.662-.318l.715-.344.716.344c1.524.734 3.613 1.74 6.565 2.868a83.05 83.05 0 0 0 5.149 1.767l.075.024c1.899.582 3.827.877 5.734.877 1 0 2.008-.082 2.995-.242 1.62-.265 3.206-.757 4.808-1.497.108.683.209 1.416.295 2.197v.125l.062.402c.722 4.631.49 9.864-.671 15.133z"/>
    </g>
</svg>
