<svg xmlns="http://www.w3.org/2000/svg" width="70" height="70" viewBox="0 0 70 70">
    <path fill="#2E3B52" fill-rule="nonzero" d="M69.394 33.699S71.001 0 33.964 0C1.21 0 .186 32.326.186 32.326S-4.632 69.453 34.72 69.453c37.74 0 34.675-35.754 34.675-35.754zM23.601 21.923c6.95-4.251 15.828-1.653 19.154 4.74.63 1.212.711 3.078.312 4.349-1.379 4.388-4.634 6.85-9.101 7.895 1.317-1.127 2.365-2.406 2.699-4.173a6.112 6.112 0 0 0-1.052-4.851 6.195 6.195 0 0 0-7.133-2.174c-2.75 1.044-4.257 3.555-3.986 6.64.253 2.867 2.428 4.724 6.497 5.43-.608.322-1.077.559-1.535.814A14.798 14.798 0 0 0 24.7 44.73c-.413.557-.697.602-1.326.218-8.181-5.003-8.707-17.559.227-23.025zm-6.123 30.914c-1.314.334-2.588.827-3.931 1.268.657-4.434 5.849-8.517 10.24-8.051a11.316 11.316 0 0 0-2.14 5.995c-1.459.268-2.834.449-4.169.788zM45.442 9.549c1.3.048 2.6.028 3.9.059.324.021.647.066.965.134a9.4 9.4 0 0 1-.98 1.258c-.466.433-.99.856-1.66.198-.161-.158-.541-.122-.822-.125-1.292-.017-2.586-.059-3.876-.01-1.12.036-2.236.15-3.34.341-.207.037-.516.725-.421.979.224.598.552 1.258 1.037 1.641 1.792 1.415 3.697 2.685 5.498 4.09 1.749 1.365 3.377 2.86 4.37 4.92 1.292 2.683 1.33 5.497.772 8.323-.93 4.717-3.318 8.626-7.184 11.465-1.558 1.144-3.487 1.793-5.27 2.615-1.57.723-3.185 1.345-4.758 2.06-2.836 1.29-4.43 4.368-3.96 7.568.43 2.937 3.006 5.388 5.957 5.893 3.54.607 7.193-1.693 8.06-5.292.973-4.046-1.225-7.659-5.34-8.754-.182-.048-.363-.094-.741-.191 1.1-.492 2.051-.843 2.929-1.326a80.555 80.555 0 0 0 4.51-2.676c.434-.278.668-.278 1.038.042 2.83 2.447 4.519 5.49 4.992 9.223.784 6.177-2.14 11.853-7.656 14.761-8.534 4.5-18.976-.622-20.86-10.082-1.615-8.104 4.104-15.455 10.987-16.874 2.96-.61 5.668-1.842 7.772-4.122 1.358-1.471 2.016-2.733 2.24-3.303a9.16 9.16 0 0 0 .63-3.35 7.84 7.84 0 0 0-.686-2.87c-.719-1.638-3.472-4.244-4.153-4.793l-6.482-5.075c-.229-.188-.486-.175-1.044-.137-.662.045-2.356.139-3.086-.053.59-.447 2.202-1.098 2.894-1.622-2.1-1.419-4.498-.906-6.7-1.33.509-.948 3.028-2.405 4.461-2.568a21.19 21.19 0 0 0-.39-2.38c-.088-.322-.448-.634-.761-.818-.761-.446-1.568-.815-2.443-1.258a5.078 5.078 0 0 1 2.624-.812 9.797 9.797 0 0 1 2.627.256c1.56.357 2.807.124 4.049-.937-.978-.394-1.955-.753-2.903-1.178a28.485 28.485 0 0 1-2.727-1.426c2.46.341 4.838 1.264 7.352.927l.064-.343-5.84-1.36C34.568.92 37.81.866 40.88 2.361c.863.42 1.767.769 2.595 1.25.404.234.676.696 1.007 1.055.263.285.475.668.798.84 1.227.652 2.578.678 3.954.645l.03-.461c1.385.432 2.944 2.03 2.941 3.196-2.244 0-4.485-.009-6.727.012-.24.003-.477.178-.716.272.227.133.45.37.681.38z"/>
</svg>
