<svg xmlns="http://www.w3.org/2000/svg" width="24" height="25" viewBox="0 0 24 25">
    <g fill="#FFF" fill-rule="evenodd" stroke="#FFF" stroke-width=".74">
        <path fill-rule="nonzero" d="M11.914 12.852h.153c1.394-.023 2.521-.492 3.354-1.39 1.832-1.976 1.527-5.365 1.494-5.689-.119-2.427-1.318-3.589-2.308-4.13-.737-.406-1.598-.625-2.56-.643h-.08c-.528 0-1.566.082-2.56.624-1 .542-2.217 1.704-2.336 4.15-.034.323-.338 3.712 1.494 5.689.828.897 1.955 1.366 3.35 1.389zM8.341 5.887c0-.013.005-.027.005-.036.157-3.266 2.579-3.617 3.616-3.617H12.019c1.285.028 3.469.529 3.616 3.617 0 .014 0 .027.005.036.005.032.338 3.13-1.175 4.76-.6.647-1.4.966-2.45.975h-.048c-1.047-.01-1.851-.328-2.446-.975-1.508-1.621-1.185-4.732-1.18-4.76z"/>
        <path d="M22.99 19.152v-.015c0-.041-.005-.082-.005-.128-.032-1.01-.102-3.372-2.425-4.127l-.054-.015c-2.414-.587-4.421-1.913-4.443-1.928a.745.745 0 0 0-1.006.168c-.23.311-.15.74.177.959.09.061 2.221 1.474 4.887 2.127 1.247.424 1.386 1.694 1.424 2.857 0 .046 0 .087.005.128.006.459-.026 1.168-.112 1.576-.867.47-4.267 2.091-9.438 2.091-5.15 0-8.57-1.627-9.443-2.096-.085-.408-.123-1.117-.112-1.577 0-.04.005-.081.005-.127.038-1.163.177-2.433 1.424-2.857 2.666-.653 4.797-2.071 4.888-2.127a.668.668 0 0 0 .176-.96.745.745 0 0 0-1.006-.167c-.022.015-2.018 1.341-4.443 1.928a.7.7 0 0 0-.054.015c-2.323.76-2.393 3.122-2.425 4.127 0 .046 0 .087-.005.128v.015c-.005.265-.01 1.627.273 2.31.053.133.15.246.278.322.16.102 4.01 2.439 10.45 2.439 6.44 0 10.288-2.342 10.449-2.439a.691.691 0 0 0 .278-.321c.268-.679.263-2.04.257-2.306z"/>
    </g>
</svg>
