<svg xmlns="http://www.w3.org/2000/svg" width="20" height="29" viewBox="0 0 20 29">
    <path fill="#FFF" fill-rule="nonzero" d="M9.98 0c3.853 0 6.987 3.164 6.987 7.053l-.001 3.426h1.997c.512 0 .934.386.991.882l.007.117v13.307c0 .442-.29.831-.714.957l-8.983 2.661a.994.994 0 0 1-.567 0L.715 25.742A.998.998 0 0 1 0 24.785V11.478c0-.552.447-.998.998-.998l1.996-.001V7.053C2.994 3.245 6 .133 9.741.004zm7.985 12.476H1.996V24.04l7.984 2.365 7.985-2.365V12.476zM9.98 17.133c.552 0 .999.447.999.998v2.662a.998.998 0 1 1-1.997 0V18.13c0-.551.447-.998.998-.998zm0-15.137c-2.751 0-4.99 2.269-4.99 5.057v3.426h9.98V7.053c0-2.715-2.122-4.937-4.773-5.052z"/>
</svg>
