<svg xmlns="http://www.w3.org/2000/svg" width="24" height="24" viewBox="0 0 24 24">
    <path fill="#FFF" fill-rule="nonzero" d="M11.438 22.125H2.845a.952.952 0 0 1-.75-.357.979.979 0 0 1-.199-.82c.974-4.677 5.101-8.092 9.865-8.203a6.382 6.382 0 0 0 6.614-6.37A6.382 6.382 0 0 0 12 0a6.382 6.382 0 0 0-6.375 6.375 6.37 6.37 0 0 0 2.561 5.106 12.183 12.183 0 0 0-3.928 2.159A12.231 12.231 0 0 0 .06 20.565 2.847 2.847 0 0 0 2.845 24h8.592a.937.937 0 1 0 0-1.875zM7.5 6.375c0-2.481 2.019-4.5 4.5-4.5s4.5 2.019 4.5 4.5a4.505 4.505 0 0 1-4.393 4.499.93.93 0 0 0-.107-.007c-.073 0-.147.001-.22.003A4.505 4.505 0 0 1 7.5 6.375zm14.437 9.673v-.767c0-1.525-1.262-2.765-2.813-2.765-1.55 0-2.812 1.24-2.812 2.765v.767a2.347 2.347 0 0 0-2.062 2.326v4.688c0 .518.42.937.938.937h7.874c.518 0 .938-.42.938-.937v-4.688a2.347 2.347 0 0 0-2.063-2.326zm-2.813-1.657c.517 0 .938.399.938.89v.75h-1.875v-.75c0-.491.42-.89.937-.89zm3.001 7.733h-6v-3.75a.47.47 0 0 1 .469-.468h5.062a.47.47 0 0 1 .469.468v3.75z"/>
</svg>
