<svg xmlns="http://www.w3.org/2000/svg" width="43" height="46" viewBox="0 0 43 46">
    <path fill="#FFF" fill-rule="nonzero" d="M42.418 7.543v-.001c-.397-3.79-1.27-6.144-1.287-6.191V1.35c-.113-.47-.283-.61-.47-.585-.017.024-.745 1.02-2.4 1.965-.865.494-1.926.97-3.15 1.17-1.223.2-2.61.159-4.129-.307l-.003-.001A50.09 50.09 0 0 1 27.794 2.5C25.216 1.516 23.68.663 22.73.255c-.388-.167-.679-.259-.903-.255H21.812c-.224-.004-.514.088-.902.255-1.29.553-3.658 1.928-8.249 3.337l-.004.001c-1.52.466-2.906.507-4.128.307a9.409 9.409 0 0 1-3.15-1.133C3.706 1.81 2.759.654 2.759.654a6.572 6.572 0 0 0-.248.697l-.001-.002s-.89 2.373-1.29 6.212c-1.103 7.091.82 15.295 4.69 21.755 0 .002.002.004.003.005 3.073 5.342 7.937 10.771 15.491 15.865.182.111.344.159.497.159a.833.833 0 0 0 .336-.075c.15-.063.298-.164.456-.284.111-.084.221-.168.33-.254.002 0 .002-.002.002-.002 7.108-4.943 11.741-10.258 14.706-15.414 3.874-6.467 5.796-14.679 4.688-21.773zm-14.26 28.535a19.08 19.08 0 0 1-.133.131l-.228.223-.169.162a55.049 55.049 0 0 1-1.062.99l-.213.19a54.4 54.4 0 0 1-.472.417l-.232.202-.235.2-.182.154c-.306.258-.617.514-.933.768l-.193.155-.156.123-.198.157-.508.394-.132.1-.148.112-.29.218-.158.117-.324.239-.261.19h-.105c-2.787-1.998-5.26-4.121-7.366-6.325-2.197-2.299-4.054-4.745-5.52-7.275l-.033-.068-.077-.12c-1.73-2.899-3.039-6.214-3.784-9.59a16.426 16.426 0 0 1-.042-.199 10.836 10.836 0 0 1-.122-.599 35.168 35.168 0 0 1-.237-1.391 26.748 26.748 0 0 1-.071-.514l23.78 20.646-.196.193zm6.104-9.78l-.014-.01L4.417 13.707v-.005c-.007-.077-.012-.154-.017-.231a.241.241 0 0 1-.002-.03l-.015-.25c-.005-.081-.01-.162-.013-.243l-.002-.037-.01-.233-.008-.254a16.8 16.8 0 0 1-.006-.254l-.003-.21v-.083a23.42 23.42 0 0 1 .265-3.793L4.619 8l.01-.086c.014-.138.03-.274.045-.408.005-.047.01-.094.017-.14l.022-.177.014-.108.005-.036c.004-.04.01-.08.016-.119l29.5 19.364.017.006-.003.003zm4.333-8.364a47.335 47.335 0 0 1-.095.418 18.88 18.88 0 0 1-.104.43 25.74 25.74 0 0 1-.147.57l-.011.037-.055.203a7.645 7.645 0 0 1-.075.266v.003L18.664 5.045c.373-.158.72-.31 1.04-.455l.097-.044.212-.096.16-.075.093-.042.161-.076.34-.16.155-.075c.153-.072.297-.142.432-.207l.466-.224c.142.067.3.143.467.224.994.479 2.355 1.135 4.28 1.87a54.15 54.15 0 0 0 3.357 1.152l.05.016c1.238.38 2.495.572 3.738.572.653 0 1.31-.054 1.953-.158A12.053 12.053 0 0 0 38.8 6.29c.07.445.136.923.192 1.432v.082l.04.261c.471 3.02.32 6.432-.437 9.868z"/>
</svg>
